<svg width="40" height="40" viewBox="0 0 40 40" fill="none" xmlns="http://www.w3.org/2000/svg">
<g clip-path="url(#clip0_648_2452)">
<path d="M15.3337 28.6667C15.7018 28.6667 16.0003 28.3682 16.0003 28C16.0003 27.6318 15.7018 27.3333 15.3337 27.3333C14.9655 27.3333 14.667 27.6318 14.667 28C14.667 28.3682 14.9655 28.6667 15.3337 28.6667Z" stroke="#44403B" stroke-width="1.33333" stroke-linecap="round" stroke-linejoin="round"/>
<path d="M22.6667 28.6667C23.0349 28.6667 23.3333 28.3682 23.3333 28C23.3333 27.6318 23.0349 27.3333 22.6667 27.3333C22.2985 27.3333 22 27.6318 22 28C22 28.3682 22.2985 28.6667 22.6667 28.6667Z" stroke="#44403B" stroke-width="1.33333" stroke-linecap="round" stroke-linejoin="round"/>
<path d="M11.3672 15.3667H12.7005L14.4739 23.6467C14.5389 23.9499 14.7076 24.221 14.951 24.4132C15.1944 24.6055 15.4971 24.7069 15.8072 24.7H22.3272C22.6306 24.6995 22.9248 24.5955 23.1612 24.4052C23.3976 24.2149 23.5619 23.9497 23.6272 23.6533L24.7272 18.7H13.4139" stroke="#44403B" stroke-width="1.33333" stroke-linecap="round" stroke-linejoin="round"/>
</g>
<path d="M20 10C20 4.47715 24.4772 0 30 0C35.5228 0 40 4.47715 40 10C40 15.5228 35.5228 20 30 20C24.4772 20 20 15.5228 20 10Z" fill="#7B3306"/>
<path d="M26.8395 14V13.0455L29.7926 9.9858C30.108 9.65341 30.3679 9.36222 30.5724 9.11222C30.7798 8.85937 30.9347 8.61932 31.0369 8.39205C31.1392 8.16477 31.1903 7.9233 31.1903 7.66761C31.1903 7.37784 31.1222 7.12784 30.9858 6.91761C30.8494 6.70455 30.6634 6.54119 30.4276 6.42756C30.1918 6.31108 29.9261 6.25284 29.6307 6.25284C29.3182 6.25284 29.0455 6.31676 28.8125 6.4446C28.5795 6.57244 28.4006 6.75284 28.2756 6.9858C28.1506 7.21875 28.0881 7.49148 28.0881 7.80398H26.831C26.831 7.27273 26.9531 6.80824 27.1974 6.41051C27.4418 6.01278 27.777 5.70455 28.2031 5.4858C28.6293 5.2642 29.1136 5.15341 29.6562 5.15341C30.2045 5.15341 30.6875 5.26278 31.1051 5.48153C31.5256 5.69744 31.8537 5.9929 32.0895 6.3679C32.3253 6.74006 32.4432 7.16051 32.4432 7.62926C32.4432 7.95312 32.3821 8.26989 32.2599 8.57955C32.1406 8.8892 31.9318 9.23437 31.6335 9.61506C31.3352 9.9929 30.9205 10.4517 30.3892 10.9915L28.6548 12.8068V12.8707H32.5838V14H26.8395Z" fill="white"/>
<defs>
<clipPath id="clip0_648_2452">
<rect width="16" height="16" fill="white" transform="translate(10 14)"/>
</clipPath>
</defs>
</svg>
