<svg width="48" height="48" viewBox="0 0 48 48" fill="none" xmlns="http://www.w3.org/2000/svg">
<path opacity="0.2" d="M12 24C12 18.6667 14 16 18 16C18 18.6667 20 20 24 20C28 20 30 18.6667 30 16C34 16 36 18.6667 36 24V36C36 38.6667 34.6667 40 32 40H16C13.3333 40 12 38.6667 12 36V24Z" fill="#BB4D00" stroke="#BB4D00" stroke-width="2"/>
<path d="M20 29.5C20.8284 29.5 21.5 28.8284 21.5 28C21.5 27.1716 20.8284 26.5 20 26.5C19.1716 26.5 18.5 27.1716 18.5 28C18.5 28.8284 19.1716 29.5 20 29.5Z" fill="#BB4D00"/>
<path d="M28 29.5C28.8284 29.5 29.5 28.8284 29.5 28C29.5 27.1716 28.8284 26.5 28 26.5C27.1716 26.5 26.5 27.1716 26.5 28C26.5 28.8284 27.1716 29.5 28 29.5Z" fill="#BB4D00"/>
</svg>
