<svg width="48" height="48" viewBox="0 0 48 48" fill="none" xmlns="http://www.w3.org/2000/svg">
<path opacity="0.3" d="M18 8H30V12H18V8Z" fill="#BB4D00"/>
<path d="M30 12H18C16.8954 12 16 12.8954 16 14V38C16 39.1046 16.8954 40 18 40H30C31.1046 40 32 39.1046 32 38V14C32 12.8954 31.1046 12 30 12Z" stroke="#BB4D00" stroke-width="2"/>
<path opacity="0.5" d="M16 24H32" stroke="#BB4D00" stroke-width="2"/>
<path opacity="0.4" d="M24 20C25.1046 20 26 19.1046 26 18C26 16.8954 25.1046 16 24 16C22.8954 16 22 16.8954 22 18C22 19.1046 22.8954 20 24 20Z" fill="#BB4D00"/>
</svg>
