<svg width="16" height="16" viewBox="0 0 16 16" fill="none" xmlns="http://www.w3.org/2000/svg">
<g clip-path="url(#clip0_648_2342)">
<path d="M9.22101 11.0455C9.35869 11.1087 9.51381 11.1232 9.6608 11.0865C9.8078 11.0497 9.9379 10.964 10.0297 10.8435L10.2663 10.5335C10.3905 10.3679 10.5516 10.2335 10.7367 10.1409C10.9219 10.0484 11.126 10.0002 11.333 10.0002H13.333C13.6866 10.0002 14.0258 10.1406 14.2758 10.3907C14.5259 10.6407 14.6663 10.9799 14.6663 11.3335V13.3335C14.6663 13.6871 14.5259 14.0263 14.2758 14.2763C14.0258 14.5264 13.6866 14.6668 13.333 14.6668C10.1504 14.6668 7.09816 13.4025 4.84773 11.1521C2.59729 8.90167 1.33301 5.84943 1.33301 2.66683C1.33301 2.31321 1.47348 1.97407 1.72353 1.72402C1.97358 1.47397 2.31272 1.3335 2.66634 1.3335H4.66634C5.01996 1.3335 5.3591 1.47397 5.60915 1.72402C5.8592 1.97407 5.99967 2.31321 5.99967 2.66683V4.66683C5.99967 4.87382 5.95148 5.07797 5.85891 5.26311C5.76634 5.44825 5.63194 5.6093 5.46634 5.7335L5.15434 5.9675C5.03195 6.06095 4.94569 6.19389 4.9102 6.34373C4.87472 6.49357 4.8922 6.65108 4.95967 6.7895C5.87079 8.64007 7.36929 10.1367 9.22101 11.0455Z" stroke="#FE9A00" stroke-width="1.33333" stroke-linecap="round" stroke-linejoin="round"/>
</g>
<defs>
<clipPath id="clip0_648_2342">
<rect width="16" height="16" fill="white"/>
</clipPath>
</defs>
</svg>
